<?xml version="1.0" standalone="no"?>
<!DOCTYPE svg PUBLIC "-//W3C//DTD SVG 20010904//EN"
 "http://www.w3.org/TR/2001/REC-SVG-20010904/DTD/svg10.dtd">
<svg version="1.0" xmlns="http://www.w3.org/2000/svg"
 width="192.000000pt" height="192.000000pt" viewBox="0 0 192.000000 192.000000"
 preserveAspectRatio="xMidYMid meet">

<g transform="translate(0.000000,192.000000) scale(0.100000,-0.100000)"
fill="#000000" stroke="none">
<path d="M842 1826 c-264 -131 -362 -197 -362 -247 0 -10 16 -56 35 -102 38
-94 85 -232 85 -253 0 -8 -6 -14 -14 -14 -7 0 -19 -6 -25 -14 -7 -8 -28 -17
-49 -21 -51 -9 -89 -34 -71 -46 10 -6 11 -9 2 -9 -7 0 -13 -6 -13 -14 0 -8 -8
-17 -17 -20 -15 -6 -15 -9 -3 -16 8 -5 18 -6 22 -4 4 3 8 -6 8 -20 0 -14 -4
-26 -8 -26 -5 0 -9 -7 -9 -15 0 -8 4 -15 8 -15 5 0 6 -6 3 -14 -3 -8 3 -16 15
-19 16 -4 19 -11 15 -33 -3 -16 -9 -30 -14 -32 -5 -2 -6 -10 -3 -19 4 -11 2
-14 -5 -9 -8 5 -12 -1 -12 -18 0 -14 -4 -26 -10 -26 -5 0 -16 -15 -24 -32 -19
-41 -40 -68 -54 -68 -6 0 -16 -9 -22 -20 -6 -11 -17 -20 -25 -20 -7 0 -35 -11
-62 -24 -26 -14 -60 -28 -75 -31 -16 -4 -28 -11 -28 -16 0 -5 -11 -9 -25 -9
-14 0 -28 -7 -31 -15 -4 -8 -10 -13 -14 -10 -5 3 -20 0 -35 -7 -24 -11 -25
-16 -24 -75 2 -61 3 -63 28 -64 l26 0 -24 -10 c-19 -8 -21 -12 -11 -24 7 -8
22 -15 34 -15 20 -1 20 -2 -4 -14 -14 -8 -29 -12 -34 -9 -5 4 -6 1 -2 -5 4 -6
13 -9 20 -6 8 3 17 1 21 -5 3 -6 -1 -11 -9 -11 -9 0 -16 -3 -16 -6 0 -11 29
-34 44 -34 8 0 18 -5 21 -10 3 -6 30 -10 58 -10 50 -1 51 -1 27 -15 -24 -14
-24 -14 20 -14 34 -1 41 2 30 10 -11 8 -6 9 20 5 47 -8 60 -11 92 -20 16 -5
36 -5 45 0 19 8 28 9 111 17 29 3 51 2 48 -1 -6 -6 43 -42 57 -42 4 0 7 7 7
15 0 8 9 19 20 25 14 8 20 8 20 0 0 -6 8 -10 18 -9 30 3 38 -1 22 -11 -9 -6
-10 -10 -3 -10 6 0 18 6 26 14 8 8 43 17 81 21 61 5 66 4 66 -15 0 -21 -15
-27 -25 -10 -3 6 -13 10 -22 10 -12 0 -13 -3 -4 -14 21 -25 48 -25 62 0 12 24
39 33 39 14 0 -7 6 -7 20 0 11 6 41 8 66 5 29 -3 43 -2 39 5 -8 13 6 13 39 0
18 -6 35 -5 57 4 21 9 43 11 67 5 38 -8 87 5 77 21 -3 5 -11 10 -16 10 -6 0
-7 -4 -4 -10 8 -13 -6 -13 -39 0 -18 6 -37 5 -66 -5 -22 -8 -40 -10 -40 -6 0
12 -39 21 -46 10 -5 -9 -34 -7 -74 6 -11 4 -18 10 -16 14 9 13 -42 10 -54 -4
-9 -10 -18 -12 -37 -4 -15 5 -33 7 -40 5 -8 -3 -16 1 -19 9 -3 7 -12 11 -20 8
-8 -3 -14 0 -14 6 0 17 51 26 61 10 7 -11 9 -11 9 2 0 20 27 33 34 16 2 -7 5
-3 5 7 1 20 1 20 16 0 11 -14 14 -15 15 -4 1 25 16 41 33 34 9 -3 14 -11 10
-18 -4 -6 1 -5 10 3 16 13 16 15 1 26 -16 11 -16 12 0 18 11 5 15 3 10 -5 -4
-7 -3 -8 4 -4 16 10 3 37 -17 34 -9 -2 -21 -12 -28 -23 -13 -21 -16 -16 -17
35 -1 32 29 48 71 39 27 -6 35 -3 48 17 19 29 19 40 1 25 -11 -9 -15 -9 -19 1
-3 8 -6 6 -6 -5 -1 -10 -5 -15 -11 -12 -5 3 -10 1 -10 -4 0 -6 -4 -11 -10 -11
-5 0 -10 7 -10 15 0 9 -7 18 -16 22 -13 5 -13 7 -2 14 9 6 5 9 -14 9 -14 0
-29 -6 -32 -12 -4 -9 -5 -8 -5 2 3 35 -2 51 -12 45 -6 -4 -8 -9 -5 -12 5 -6
-18 -33 -29 -33 -3 0 -3 9 0 20 4 14 2 20 -9 20 -10 0 -13 -6 -10 -17 5 -16 4
-16 -6 0 -9 14 -15 16 -25 7 -8 -7 -19 -9 -26 -5 -6 4 -14 2 -18 -4 -4 -6 -23
-13 -42 -14 -19 -2 -44 -9 -56 -15 -34 -19 -46 -16 -33 8 6 11 32 31 58 45 66
35 202 131 231 162 24 25 24 26 4 21 -31 -8 -38 20 -13 47 12 13 22 29 24 36
1 8 5 21 10 29 4 8 -4 2 -18 -13 -25 -27 -46 -29 -46 -3 0 15 44 38 84 43 25
3 27 1 16 -12 -11 -13 -10 -14 4 -9 9 3 16 2 16 -4 0 -6 -6 -13 -12 -15 -10
-4 -9 -6 1 -6 11 -1 11 -4 0 -18 -8 -9 -9 -14 -2 -10 6 4 13 2 15 -5 3 -8 16
-5 41 11 36 22 52 49 22 37 -22 -8 -18 9 11 43 25 30 25 31 4 31 -13 0 -19 -4
-14 -12 4 -7 3 -8 -4 -4 -6 4 -22 0 -36 -9 -18 -12 -26 -13 -32 -4 -4 8 -3 9
4 5 7 -4 12 -1 12 9 0 13 -9 15 -57 10 -31 -3 -60 -10 -63 -15 -8 -13 -75 -40
-100 -40 -24 0 -81 -27 -92 -44 -6 -8 -8 -8 -8 0 0 6 6 17 14 24 16 12 10 44
-5 34 -5 -3 -7 -9 -4 -14 3 -4 -2 -13 -10 -20 -8 -7 -15 -9 -15 -5 0 5 -9 0
-20 -10 -23 -21 -40 -13 -19 8 15 14 21 17 43 17 9 0 13 9 12 23 -2 16 6 31
25 47 16 12 27 26 24 30 -3 4 2 10 10 14 17 6 20 32 5 38 -6 2 -5 9 1 18 8 11
12 12 16 2 2 -6 9 -9 14 -6 6 3 5 11 -2 20 -9 11 -9 14 1 14 7 0 10 6 7 13 -2
6 1 18 8 24 19 17 29 -14 13 -36 -12 -15 -11 -15 7 -1 28 21 36 33 30 48 -4
12 49 39 68 34 11 -3 8 13 -5 27 -11 10 -10 12 2 9 8 -2 15 4 15 12 0 8 5 18
10 22 6 4 1 8 -10 9 -11 0 7 11 40 24 33 13 71 22 85 20 26 -5 54 7 48 20 -1
5 43 32 100 61 116 60 209 124 263 181 55 57 56 71 7 135 -24 30 -68 94 -98
141 l-55 87 -151 0 -150 0 -192 -94z m423 -24 c-6 -4 -23 -18 -39 -32 -27 -24
-28 -24 -17 -3 6 12 19 27 29 32 20 12 41 15 27 3z m55 -2 c18 -12 2 -12 -25
0 -13 6 -15 9 -5 9 8 0 22 -4 30 -9z m-44 -46 c-10 -7 -23 -11 -27 -8 -17 10
-9 19 18 21 26 1 26 0 9 -13z m-66 -49 c0 -5 -5 -3 -10 5 -5 8 -10 20 -10 25
0 6 5 3 10 -5 5 -8 10 -19 10 -25z m176 13 c4 -6 3 -8 -4 -4 -6 3 -15 -2 -21
-11 -9 -15 -10 -15 -11 -2 0 28 23 39 36 17z m-88 -31 c3 -21 11 -31 33 -39
37 -13 37 -37 -1 -51 -16 -6 -30 -17 -30 -23 0 -21 -29 -36 -56 -30 -34 9 -25
30 15 34 26 3 30 6 21 17 -9 10 -4 15 21 20 23 5 28 10 18 16 -8 5 -23 6 -34
3 -16 -4 -17 -3 -5 5 13 10 13 12 0 21 -12 8 -12 10 -1 10 10 0 11 3 2 13 -6
8 -7 18 -3 22 4 5 -1 5 -10 2 -10 -4 -18 -2 -18 4 0 6 10 9 23 7 16 -2 23 -11
25 -31z m-212 -32 c9 -13 20 -40 24 -59 9 -43 -17 -92 -55 -102 -14 -3 -25
-11 -25 -18 0 -8 -2 -8 -8 0 -4 6 -23 18 -42 28 -20 9 -44 33 -57 56 -29 49
-29 50 2 50 18 0 25 5 25 19 0 31 23 44 55 29 23 -10 28 -10 36 5 14 23 26 21
45 -8z m169 -15 c-3 -5 -14 -10 -23 -9 -14 0 -13 2 3 9 27 11 27 11 20 0z
m-101 -19 c14 -15 15 -24 6 -40 -16 -31 -29 -25 -23 10 3 21 1 29 -6 24 -6 -3
-11 1 -11 9 0 21 13 20 34 -3z m258 -20 c-8 -58 -74 -92 -176 -90 l-61 2 70 7
c95 10 142 31 151 67 12 50 23 59 16 14z m38 19 c0 -5 -2 -10 -4 -10 -3 0 -8
5 -11 10 -3 6 -1 10 4 10 6 0 11 -4 11 -10z m-193 -22 c-3 -8 -6 -5 -6 6 -1
11 2 17 5 13 3 -3 4 -12 1 -19z m-511 -56 c-3 -2 -22 -6 -43 -8 -22 -2 -44
-11 -51 -21 -11 -15 -10 -20 7 -32 12 -7 21 -21 21 -29 0 -12 -4 -10 -16 6 -9
13 -22 21 -30 18 -20 -8 -18 28 4 47 25 23 61 34 89 29 13 -2 22 -7 19 -10z
m420 -24 c-9 -57 -23 -71 -60 -64 -26 5 -33 2 -41 -16 -11 -24 -19 -25 -90
-11 -28 6 -41 14 -43 28 -2 11 -14 28 -25 37 -18 14 -20 21 -11 35 13 21 30
15 27 -9 -2 -12 2 -15 12 -12 8 4 15 1 15 -6 0 -6 4 -9 9 -6 5 3 14 0 20 -7 8
-10 7 -14 -4 -14 -8 0 -11 5 -8 10 3 6 1 7 -6 3 -6 -4 -9 -11 -6 -16 6 -9 24
-8 42 3 6 4 14 3 17 -1 3 -5 17 -7 31 -5 13 3 22 9 19 14 -8 13 10 11 23 -2 8
-8 16 -8 30 0 16 11 15 11 -7 6 -24 -6 -24 -5 -6 9 11 9 23 16 28 16 4 0 10
11 14 25 11 43 27 29 20 -17z m-446 -3 c0 -17 -27 -32 -37 -21 -4 3 2 13 13
21 24 18 24 18 24 0z m110 -16 c0 -6 -4 -7 -10 -4 -5 3 -10 11 -10 16 0 6 5 7
10 4 6 -3 10 -11 10 -16z m-84 -34 c-3 -14 -1 -23 4 -20 11 7 33 -32 26 -44
-3 -5 2 -15 11 -22 14 -12 16 -12 8 1 -4 8 -5 12 0 8 4 -4 14 -3 22 3 7 6 13
7 13 2 0 -5 9 -9 20 -8 24 2 40 15 18 15 -9 0 -22 8 -29 18 -13 15 -12 16 3 3
10 -7 27 -11 39 -8 17 5 20 1 17 -21 -3 -25 -7 -27 -45 -27 -23 0 -48 -6 -54
-12 -7 -7 -23 -13 -36 -13 -25 0 -31 23 -13 50 7 11 4 19 -12 31 -16 12 -19
23 -14 43 8 33 28 34 22 1z m488 13 c-3 -4 -16 -8 -29 -8 -13 0 -26 4 -29 8
-2 4 10 8 29 8 19 0 31 -4 29 -8z m-409 -28 c-3 -5 -13 -10 -21 -10 -9 0 -14
-6 -11 -12 2 -7 10 -12 16 -10 7 1 10 -2 6 -8 -5 -8 -11 -7 -21 1 -20 16 -17
28 9 39 29 12 29 12 22 0z m-167 -36 c5 3 18 -1 28 -9 18 -14 17 -14 -11 -15
-21 0 -35 7 -44 23 -13 20 -13 21 2 9 9 -8 20 -11 25 -8z m275 -39 c-34 -43
-114 -95 -147 -95 -14 0 -36 4 -50 10 -23 8 -26 7 -32 -16 -5 -19 -10 -22 -18
-14 -7 7 -7 16 2 31 10 16 10 24 1 35 -6 8 -8 14 -4 14 4 0 13 -7 19 -15 6 -8
21 -17 34 -20 13 -2 32 -7 42 -10 33 -10 168 84 153 108 -3 6 -1 7 5 3 7 -4
12 -2 12 5 0 7 3 10 6 6 3 -3 -7 -22 -23 -42z m64 12 c-17 -25 -44 -44 -52
-35 -8 8 48 65 58 60 5 -2 2 -13 -6 -25z m-186 -190 c-6 -8 -9 -17 -6 -21 3
-3 -1 -1 -7 4 -10 9 -10 13 2 20 21 13 24 12 11 -3z m-311 -72 c-7 -8 -18 -15
-24 -15 -6 0 -2 7 8 15 25 19 32 19 16 0z m357 -285 c-8 -22 -14 -26 -24 -19
-7 6 -18 9 -25 6 -8 -3 -5 -6 7 -7 l20 -1 -20 -8 c-11 -5 -24 -6 -28 -4 -13 7
23 42 37 37 7 -3 19 2 26 11 18 22 20 19 7 -15z m-3 -77 c4 -11 1 -22 -8 -29
-9 -6 -14 -13 -11 -15 2 -3 -6 -5 -18 -5 -22 0 -22 1 -8 33 17 36 35 43 45 16z
m-314 -173 c0 -5 -2 -10 -4 -10 -3 0 -8 5 -11 10 -3 6 -1 10 4 10 6 0 11 -4
11 -10z m149 -84 c8 -10 9 -16 1 -21 -6 -3 -7 -12 -4 -18 4 -7 -3 -2 -15 11
-12 12 -27 22 -34 23 -7 0 -3 4 8 9 28 12 31 12 44 -4z m-44 -26 c3 -5 1 -10
-4 -10 -6 0 -11 5 -11 10 0 6 2 10 4 10 3 0 8 -4 11 -10z m-85 -4 c0 -3 -4 -8
-10 -11 -5 -3 -10 -1 -10 4 0 6 5 11 10 11 6 0 10 -2 10 -4z m24 -5 c3 -5 -1
-11 -9 -14 -9 -4 -12 -1 -8 9 6 16 10 17 17 5z m-84 -20 c0 -5 -5 -11 -12 -13
-7 -3 -5 -7 6 -11 10 -4 15 -3 11 3 -10 16 5 12 23 -7 13 -13 14 -17 3 -21 -8
-3 -9 -7 -3 -11 5 -3 12 -15 16 -26 5 -17 0 -23 -29 -34 -35 -12 -44 -25 -25
-36 6 -3 10 -2 10 2 0 14 42 13 60 0 13 -10 13 -10 3 4 -14 18 -8 29 16 29 13
0 13 -2 2 -9 -17 -11 1 -23 23 -15 15 6 46 -11 46 -25 0 -4 -58 -6 -128 -6
-96 0 -129 3 -129 13 0 6 4 12 9 12 4 0 8 5 8 12 0 9 -3 9 -12 0 -16 -16 -40
-15 -62 1 -16 12 -15 13 15 11 32 -2 33 -2 14 13 -14 11 -16 17 -7 20 6 3 12
10 12 16 1 13 62 47 85 47 7 0 17 9 20 20 6 20 25 28 25 11z m-96 -25 c-3 -9
-16 -16 -28 -16 -21 1 -21 1 3 21 26 22 35 20 25 -5z m281 14 c-3 -5 -11 -10
-16 -10 -6 0 -7 5 -4 10 3 6 11 10 16 10 6 0 7 -4 4 -10z m-25 -70 c0 -5 -5
-10 -11 -10 -5 0 -7 5 -4 10 3 6 8 10 11 10 2 0 4 -4 4 -10z m-335 -98 c-1 -1
-13 2 -26 7 -13 5 -18 10 -11 10 8 1 10 6 6 14 -4 6 2 3 13 -8 11 -11 19 -21
18 -23z m354 -1 c-6 -2 -15 3 -20 10 -15 24 -10 29 11 11 12 -10 16 -18 9 -21z
m41 24 c7 -9 10 -18 7 -21 -9 -9 -28 6 -22 17 3 5 0 6 -8 3 -8 -3 -18 -1 -22
5 -10 17 31 13 45 -4z m47 -21 c-3 -3 -12 -4 -19 -1 -8 3 -5 6 6 6 11 1 17 -2
13 -5z"/>
<path d="M980 1621 c0 -17 18 -31 41 -31 5 0 9 8 9 18 0 14 -2 15 -10 2 -8
-12 -10 -11 -10 8 0 13 -6 22 -15 22 -8 0 -15 -9 -15 -19z"/>
<path d="M1060 1620 c6 -12 7 -20 1 -20 -5 0 -12 6 -15 13 -3 6 -4 -12 -2 -42
3 -48 2 -52 -10 -36 -7 10 -11 21 -9 25 3 5 -7 11 -23 14 -15 4 -35 9 -44 12
-13 4 -18 0 -18 -13 0 -11 3 -14 8 -7 4 7 15 8 27 3 14 -5 15 -8 5 -9 -8 -1
-4 -6 10 -10 18 -6 20 -8 7 -9 -16 -1 -17 -3 -3 -16 21 -21 58 -19 79 5 20 24
22 31 4 24 -8 -3 -13 3 -13 16 0 22 12 27 19 8 3 -7 6 -3 6 9 1 31 -9 53 -25
53 -12 0 -12 -4 -4 -20z"/>
<path d="M470 396 c0 -2 7 -6 15 -10 8 -3 15 -1 15 4 0 6 -7 10 -15 10 -8 0
-15 -2 -15 -4z"/>
<path d="M394 335 c11 -8 24 -21 28 -27 6 -9 8 -7 6 6 -2 10 -14 23 -28 27
-24 9 -24 8 -6 -6z"/>
<path d="M445 320 c-3 -5 -2 -10 4 -10 5 0 13 5 16 10 3 6 2 10 -4 10 -5 0
-13 -4 -16 -10z"/>
<path d="M1337 1352 c-15 -3 -16 -6 -5 -20 7 -9 8 -13 2 -10 -5 4 -23 -4 -40
-17 -24 -21 -27 -26 -14 -35 20 -13 50 -13 50 1 0 6 -7 9 -15 5 -8 -3 -15 -1
-15 4 0 6 14 10 31 10 16 0 28 -4 25 -9 -4 -5 4 -6 16 -3 18 5 19 7 6 10 -21
4 -32 33 -16 43 17 11 -1 27 -25 21z"/>
<path d="M1178 1315 c-11 -13 -25 -22 -30 -19 -4 3 -8 -2 -8 -11 0 -9 4 -14 9
-11 12 8 20 -38 10 -56 -5 -10 -2 -14 12 -15 15 -1 19 5 20 30 0 27 2 29 9 12
8 -19 9 -19 9 3 1 12 5 22 10 22 13 0 22 30 16 51 -9 26 -31 24 -57 -6z"/>
<path d="M1045 1244 c-20 -15 -20 -15 5 -37 14 -12 26 -35 28 -50 1 -16 9 -35
17 -43 8 -9 13 -20 10 -25 -3 -5 -1 -18 6 -30 6 -12 7 -19 2 -16 -4 3 -13 -5
-19 -18 -9 -19 -9 -25 2 -29 8 -3 14 1 14 8 0 8 4 16 9 18 5 2 18 20 29 41 19
37 21 37 28 15 14 -42 12 -47 -22 -67 -19 -11 -34 -24 -34 -29 0 -11 34 -22
68 -22 14 0 21 -4 16 -11 -5 -8 -1 -8 14 0 15 8 21 8 25 -2 2 -6 15 -13 28
-14 13 0 35 -4 49 -8 24 -6 24 -6 6 9 -10 8 -15 19 -11 25 3 7 -2 11 -15 11
-11 0 -23 -7 -26 -15 -10 -26 -23 -16 -35 28 -6 23 -19 56 -30 73 -10 17 -16
33 -13 36 3 3 -5 8 -18 11 -25 7 -53 63 -37 73 5 3 4 14 -2 26 -8 15 -8 19 0
14 6 -4 11 -3 11 3 0 12 -52 41 -72 41 -7 0 -22 -8 -33 -16z m60 -74 c3 -5 1
-10 -4 -10 -6 0 -11 5 -11 10 0 6 2 10 4 10 3 0 8 -4 11 -10z"/>
<path d="M1230 1235 c0 -23 4 -30 15 -26 6 2 16 4 23 4 15 0 15 10 0 25 -17
17 -38 15 -38 -3z"/>
<path d="M85 1190 c-3 -6 6 -15 20 -20 41 -16 52 -11 25 10 -29 22 -36 24 -45
10z"/>
<path d="M280 1181 c0 -6 4 -13 10 -16 6 -3 7 1 4 9 -7 18 -14 21 -14 7z"/>
<path d="M395 1160 c-3 -5 3 -10 14 -10 12 0 21 5 21 10 0 6 -6 10 -14 10 -8
0 -18 -4 -21 -10z"/>
<path d="M870 1146 c0 -2 7 -6 15 -10 8 -3 15 -1 15 4 0 6 -7 10 -15 10 -8 0
-15 -2 -15 -4z"/>
<path d="M5 1121 c-3 -5 4 -13 16 -16 23 -8 34 -1 24 14 -8 13 -32 14 -40 2z"/>
<path d="M226 1114 c-4 -10 -1 -14 6 -12 15 5 23 28 10 28 -5 0 -13 -7 -16
-16z"/>
<path d="M343 1123 c-20 -4 -39 -30 -29 -40 2 -3 18 3 35 11 16 9 37 16 46 16
8 0 15 5 15 10 0 10 -25 11 -67 3z"/>
<path d="M75 1090 c3 -5 8 -10 11 -10 2 0 4 5 4 10 0 6 -5 10 -11 10 -5 0 -7
-4 -4 -10z"/>
<path d="M198 1056 c-10 -7 -18 -18 -18 -24 0 -13 22 -6 65 20 l30 18 -30 0
c-16 -1 -38 -7 -47 -14z"/>
<path d="M865 1040 c3 -5 11 -10 16 -10 6 0 7 5 4 10 -3 6 -11 10 -16 10 -6 0
-7 -4 -4 -10z"/>
<path d="M86 1014 c-6 -15 8 -17 39 -5 18 7 17 8 -7 13 -17 3 -29 0 -32 -8z"/>
<path d="M1380 969 c0 -5 5 -7 10 -4 6 3 10 8 10 11 0 2 -4 4 -10 4 -5 0 -10
-5 -10 -11z"/>
<path d="M730 946 c0 -2 7 -7 16 -10 8 -3 12 -2 9 4 -6 10 -25 14 -25 6z"/>
<path d="M1414 930 c0 -14 7 -20 21 -19 11 0 14 3 8 6 -7 2 -13 11 -13 19 0 8
-4 14 -8 14 -4 0 -8 -9 -8 -20z"/>
<path d="M1440 941 c0 -5 7 -12 16 -15 14 -5 15 -4 4 9 -14 17 -20 19 -20 6z"/>
<path d="M1215 898 c-17 -18 -18 -20 -2 -15 9 4 17 2 17 -4 0 -17 44 -49 51
-37 6 10 49 -19 49 -34 0 -4 9 -18 21 -30 11 -13 31 -38 42 -57 14 -22 34 -38
55 -43 17 -5 32 -13 32 -18 0 -18 32 -40 60 -40 19 0 37 -10 57 -32 53 -60
147 -118 190 -118 11 0 34 -18 52 -40 17 -22 38 -40 45 -40 14 0 33 37 30 58
-1 6 -2 18 -3 26 0 7 -9 16 -18 20 -10 3 -24 9 -30 12 -8 3 -13 -1 -13 -10 0
-9 -4 -16 -10 -16 -10 0 -14 14 -11 38 1 6 -3 12 -9 12 -5 0 -10 7 -10 15 0 8
-11 17 -25 21 -14 3 -25 12 -25 20 0 8 -7 14 -16 14 -8 0 -12 -5 -8 -11 10
-16 -29 6 -46 25 -7 9 -19 16 -28 16 -8 0 -12 3 -9 7 9 9 -31 36 -42 28 -5 -3
-16 4 -25 16 -8 12 -25 22 -40 22 -14 0 -24 3 -21 6 2 4 -8 16 -23 27 -14 10
-40 31 -57 45 -16 14 -35 24 -42 22 -6 -2 -19 9 -29 26 -17 29 -39 41 -77 41
-10 0 -28 11 -40 24 l-22 25 -20 -21z"/>
<path d="M1470 901 c0 -6 4 -13 10 -16 6 -3 7 1 4 9 -7 18 -14 21 -14 7z"/>
<path d="M1364 878 c-3 -5 10 -8 30 -6 19 1 33 5 31 9 -7 10 -54 8 -61 -3z"/>
<path d="M1565 850 c5 -7 1 -11 -11 -9 -11 1 -34 -4 -52 -11 l-33 -12 20 -19
c11 -11 33 -22 48 -25 24 -5 30 -1 41 25 8 18 18 28 24 25 7 -4 8 -2 4 4 -4 7
-16 17 -28 23 -15 8 -19 8 -13 -1z m3 -42 c-6 -18 -28 -21 -28 -4 0 9 7 16 16
16 9 0 14 -5 12 -12z"/>
<path d="M1683 754 c0 -17 -6 -14 47 -20 45 -6 45 -6 21 12 -30 22 -68 26 -68
8z"/>
<path d="M1645 720 c3 -5 10 -10 16 -10 5 0 9 5 9 10 0 6 -7 10 -16 10 -8 0
-12 -4 -9 -10z"/>
<path d="M1680 714 c0 -8 5 -12 10 -9 6 4 8 11 5 16 -9 14 -15 11 -15 -7z"/>
<path d="M1826 681 c-4 -5 3 -7 14 -4 23 6 26 13 6 13 -8 0 -17 -4 -20 -9z"/>
<path d="M1770 650 c0 -16 43 -29 58 -18 6 6 12 15 12 20 0 6 -8 4 -17 -3 -11
-10 -14 -10 -9 -1 5 8 -1 12 -18 12 -14 0 -26 -5 -26 -10z"/>
<path d="M954 458 c-3 -4 4 -8 15 -8 12 0 21 4 21 8 0 5 -7 9 -15 9 -9 0 -18
-4 -21 -9z"/>
<path d="M1525 313 c-16 -3 -35 -9 -41 -14 -6 -5 -20 -6 -30 -2 -17 6 -18 6
-3 -9 12 -12 27 -15 60 -11 42 5 43 4 24 -11 -20 -15 -20 -15 5 -16 20 0 22
-2 10 -10 -22 -15 1 -11 29 4 15 8 19 16 13 20 -13 8 -5 36 10 36 5 0 6 -5 3
-10 -4 -6 7 -16 24 -23 17 -7 28 -16 24 -20 -3 -4 1 -7 10 -7 10 0 17 8 17 19
0 24 31 52 37 34 3 -7 14 -13 25 -13 16 0 18 -3 9 -14 -9 -11 -5 -11 24 -2 42
13 45 24 8 31 -16 4 -37 8 -48 11 -32 7 -177 12 -210 7z m130 -23 c3 -6 -1 -7
-9 -4 -18 7 -21 14 -7 14 6 0 13 -4 16 -10z"/>
<path d="M1824 291 c3 -4 17 -7 32 -5 41 4 41 14 0 14 -20 0 -35 -4 -32 -9z"/>
<path d="M1363 275 c21 -11 34 -12 48 -5 29 16 23 20 -28 20 l-48 0 28 -15z"/>
<path d="M20 270 c-9 -6 -10 -10 -3 -10 6 0 15 5 18 10 8 12 4 12 -15 0z"/>
<path d="M1880 256 c6 -8 18 -12 26 -9 19 7 7 23 -18 23 -17 0 -18 -3 -8 -14z"/>
<path d="M1820 251 c0 -6 -8 -11 -17 -12 -10 0 -13 -3 -6 -5 18 -8 49 11 34
20 -6 4 -11 2 -11 -3z"/>
<path d="M472 234 c-11 -12 -8 -14 18 -14 34 0 38 5 13 19 -13 6 -22 5 -31 -5z"/>
<path d="M1170 240 c0 -5 -7 -10 -15 -10 -8 0 -15 -4 -15 -10 0 -12 2 -12 36
0 24 9 26 8 21 -10 -3 -11 -4 -20 -4 -20 1 0 25 9 52 20 44 18 46 20 17 17
-22 -2 -36 1 -39 10 -6 15 -53 18 -53 3z"/>
<path d="M933 225 c-20 -22 -16 -25 17 -14 16 6 27 15 24 20 -8 13 -27 10 -41
-6z"/>
<path d="M5 219 c-4 -6 -5 -12 -2 -15 2 -3 7 2 10 11 7 17 1 20 -8 4z"/>
<path d="M70 220 c8 -5 22 -9 30 -9 10 0 8 3 -5 9 -27 12 -43 12 -25 0z"/>
<path d="M738 216 c-10 -7 -15 -15 -12 -18 7 -8 44 3 44 13 0 15 -15 17 -32 5z"/>
<path d="M1090 221 c0 -8 -6 -11 -16 -7 -14 6 -15 4 -4 -9 12 -15 14 -15 23 0
5 9 6 19 3 22 -3 4 -6 1 -6 -6z"/>
<path d="M1659 193 c0 -16 -2 -36 -4 -45 -2 -10 1 -18 6 -18 5 0 9 20 9 45 0
48 -9 64 -11 18z"/>
<path d="M988 196 c-23 -17 -15 -24 22 -18 25 3 28 7 19 18 -14 17 -19 17 -41
0z"/>
<path d="M1536 195 c4 -8 10 -12 15 -9 14 8 10 24 -6 24 -9 0 -12 -6 -9 -15z"/>
<path d="M168 193 c6 -2 18 -2 25 0 6 3 1 5 -13 5 -14 0 -19 -2 -12 -5z"/>
<path d="M320 191 c-18 -5 -21 -9 -11 -15 8 -5 19 -2 29 8 9 9 14 16 12 15 -3
-1 -16 -4 -30 -8z"/>
<path d="M1250 180 l-25 -20 39 0 c35 0 37 2 25 18 -7 9 -14 18 -14 19 0 1
-11 -7 -25 -17z"/>
<path d="M1324 186 c11 -9 25 -16 32 -16 7 0 15 -6 17 -12 3 -7 6 -4 6 8 1 11
-5 21 -11 22 -7 0 -24 3 -38 7 -24 6 -24 6 -6 -9z"/>
<path d="M1820 190 c0 -5 5 -10 11 -10 5 0 7 5 4 10 -3 6 -8 10 -11 10 -2 0
-4 -4 -4 -10z"/>
<path d="M107 177 c-4 -10 2 -13 19 -9 13 2 21 8 18 13 -8 14 -31 11 -37 -4z"/>
<path d="M465 180 c-18 -8 -17 -9 8 -9 16 -1 26 3 22 9 -3 6 -7 10 -8 9 -1 0
-11 -4 -22 -9z"/>
<path d="M1470 175 c-14 -16 -3 -20 19 -6 8 5 9 11 3 15 -5 3 -15 -1 -22 -9z"/>
<path d="M1600 170 c0 -13 18 -22 24 -11 3 5 -1 11 -9 15 -8 3 -15 1 -15 -4z"/>
<path d="M1742 165 c-11 -12 -10 -15 2 -15 24 0 46 12 40 21 -8 13 -27 10 -42
-6z"/>
<path d="M173 163 c-22 -8 -14 -21 12 -19 14 0 25 4 25 7 0 10 -23 17 -37 12z"/>
<path d="M240 160 c8 -5 22 -10 30 -10 13 0 13 1 0 10 -8 5 -22 10 -30 10 -13
0 -13 -1 0 -10z"/>
<path d="M725 160 c-3 -5 3 -10 15 -10 12 0 18 5 15 10 -3 6 -10 10 -15 10 -5
0 -12 -4 -15 -10z"/>
<path d="M1525 146 c-18 -13 -18 -14 8 -9 15 3 27 9 27 14 0 13 -13 11 -35 -5z"/>
<path d="M530 135 c7 -9 15 -13 17 -11 7 7 -7 26 -19 26 -6 0 -6 -6 2 -15z"/>
<path d="M450 130 c-12 -8 -12 -10 2 -15 20 -8 41 2 33 16 -8 11 -16 11 -35
-1z"/>
<path d="M660 130 c0 -5 5 -10 10 -10 6 0 10 5 10 10 0 6 -4 10 -10 10 -5 0
-10 -4 -10 -10z"/>
<path d="M1810 130 c-12 -8 -11 -10 7 -10 12 0 25 5 28 10 8 13 -15 13 -35 0z"/>
<path d="M780 121 c0 -5 7 -12 16 -15 24 -9 28 -7 14 9 -14 17 -30 20 -30 6z"/>
<path d="M920 109 c0 -5 5 -7 10 -4 6 3 10 8 10 11 0 2 -4 4 -10 4 -5 0 -10
-5 -10 -11z"/>
<path d="M1120 110 c0 -5 5 -10 11 -10 5 0 7 5 4 10 -3 6 -8 10 -11 10 -2 0
-4 -4 -4 -10z"/>
<path d="M705 100 c-18 -8 -17 -9 8 -9 16 -1 26 3 22 9 -3 6 -7 10 -8 9 -1 0
-11 -4 -22 -9z"/>
</g>
</svg>
